<?xml version="1.0" encoding="UTF-8"?>
<!DOCTYPE svg PUBLIC "-//W3C//DTD SVG 1.1//EN" "http://www.w3.org/Graphics/SVG/1.1/DTD/svg11.dtd">
<!-- Creator: CorelDRAW -->
<svg xmlns="http://www.w3.org/2000/svg" xml:space="preserve" width="47.5516mm" height="12.4356mm" version="1.1" style="shape-rendering:geometricPrecision; text-rendering:geometricPrecision; image-rendering:optimizeQuality; fill-rule:evenodd; clip-rule:evenodd"
viewBox="0 0 402.47 105.25"
 xmlns:xlink="http://www.w3.org/1999/xlink"
 xmlns:xodm="http://www.corel.com/coreldraw/odm/2003">
 <defs>
  <style type="text/css">
   <![CDATA[
    .fil1 {fill:#FEFEFE}
    .fil2 {fill:#2A3545}
    .fil4 {fill:#FEFEFE;fill-rule:nonzero}
    .fil3 {fill:#BAC941;fill-rule:nonzero}
    .fil0 {fill:url(#id0)}
   ]]>
  </style>
  <linearGradient id="id0" gradientUnits="userSpaceOnUse" x1="40.59" y1="74.42" x2="40.59" y2="0">
   <stop offset="0" style="stop-opacity:1; stop-color:#A8B90F"/>
   <stop offset="1" style="stop-opacity:1; stop-color:#BCCA46"/>
  </linearGradient>
 </defs>
 <g id="Camada_x0020_1">
  <metadata id="CorelCorpID_0Corel-Layer"/>
  <path class="fil0" d="M68.43 31.25l14.51 -9.53 -40.43 -20.69 -16.34 7.64 42.26 22.58zm0 0l21.72 11.61 -49.45 33.65 -19.81 -14.03 47.54 -31.22 0 -0zm-39.2 0.62l14.91 -8.05 -22.53 -13.01 -15.87 7.42 23.49 13.65zm0 0l15.94 8.93 -28.47 18.7 -16.7 -11.41 29.23 -16.21 0 -0z"/>
  <polygon class="fil1" points="103.82,8.06 82.94,21.72 65.45,12.76 87.68,0.76 "/>
  <polygon class="fil1" points="126.26,18.21 108.75,10.32 87.92,24 104.99,32.7 "/>
  <polygon class="fil1" points="104.99,32.7 141.03,50.98 129.36,58.75 94.28,40 "/>
  <polygon class="fil1" points="90.11,42.84 125.19,61.58 105.1,75.44 71.07,55.84 "/>
  <polygon class="fil2" points="5.74,18.22 29.23,31.87 5.74,44.53 "/>
  <polygon class="fil2" points="126.26,18.21 104.99,32.7 126.26,43.49 "/>
  <polygon class="fil2" points="-0,48.08 40.7,76.83 40.7,105.25 -0,76.51 "/>
  <polygon class="fil2" points="71.07,55.84 40.7,76.83 40.7,105.25 71.07,84.27 "/>
  <polygon class="fil2" points="71.07,55.84 105.1,75.44 105.1,103.87 71.07,84.27 "/>
  <polygon class="fil2" points="141.03,50.98 105.1,75.44 105.1,103.87 141.03,79.4 "/>
  <path class="fil3" d="M158.23 19.12c0,-3.64 0.82,-6.92 2.46,-9.83 1.64,-2.91 3.89,-5.19 6.72,-6.83 2.84,-1.64 5.99,-2.46 9.45,-2.46 4.07,0 7.62,0.98 10.66,2.95 3.04,1.96 5.25,4.75 6.64,8.35l-5.84 0c-1.04,-2.25 -2.53,-3.98 -4.47,-5.2 -1.95,-1.22 -4.28,-1.82 -6.99,-1.82 -2.61,0 -4.95,0.61 -7.02,1.82 -2.07,1.21 -3.7,2.94 -4.87,5.17 -1.18,2.23 -1.77,4.85 -1.77,7.85 0,2.96 0.59,5.56 1.77,7.79 1.18,2.23 2.8,3.96 4.87,5.17 2.07,1.22 4.41,1.82 7.02,1.82 2.72,0 5.04,-0.6 6.99,-1.8 1.95,-1.2 3.44,-2.92 4.47,-5.17l5.84 0c-1.39,3.57 -3.61,6.33 -6.64,8.28 -3.04,1.95 -6.59,2.92 -10.66,2.92 -3.46,0 -6.62,-0.81 -9.45,-2.44 -2.84,-1.63 -5.08,-3.89 -6.72,-6.78 -1.64,-2.89 -2.46,-6.16 -2.46,-9.8l0 -0zm60.1 19.07c-3.46,0 -6.62,-0.81 -9.48,-2.44 -2.86,-1.62 -5.12,-3.89 -6.78,-6.8 -1.66,-2.91 -2.49,-6.19 -2.49,-9.83 0,-3.64 0.83,-6.92 2.49,-9.83 1.66,-2.91 3.92,-5.18 6.78,-6.8 2.86,-1.63 6.02,-2.44 9.48,-2.44 3.5,0 6.68,0.81 9.53,2.44 2.86,1.62 5.11,3.88 6.75,6.77 1.64,2.89 2.46,6.18 2.46,9.86 0,3.68 -0.82,6.96 -2.46,9.85 -1.64,2.89 -3.89,5.15 -6.75,6.78 -2.86,1.63 -6.03,2.44 -9.53,2.44l0 -0zm0 -4.23c2.61,0 4.95,-0.61 7.04,-1.82 2.09,-1.22 3.73,-2.95 4.93,-5.2 1.2,-2.25 1.8,-4.86 1.8,-7.82 0,-3 -0.6,-5.61 -1.8,-7.85 -1.2,-2.23 -2.83,-3.96 -4.9,-5.17 -2.07,-1.22 -4.43,-1.82 -7.07,-1.82 -2.64,0 -5,0.61 -7.07,1.82 -2.07,1.21 -3.7,2.94 -4.9,5.17 -1.2,2.23 -1.8,4.85 -1.8,7.85 0,2.96 0.6,5.57 1.8,7.82 1.2,2.25 2.84,3.98 4.93,5.2 2.09,1.21 4.44,1.82 7.04,1.82zm54.53 3.86l-4.88 0 -19.6 -29.73 0 29.73 -4.87 0 0 -37.39 4.87 0 19.6 29.67 0 -29.67 4.88 0 0 37.39zm20.14 0.37c-2.46,0 -4.67,-0.44 -6.62,-1.31 -1.95,-0.88 -3.47,-2.09 -4.58,-3.64 -1.1,-1.55 -1.68,-3.35 -1.71,-5.38l5.2 0c0.18,1.75 0.9,3.22 2.17,4.42 1.27,1.2 3.12,1.8 5.54,1.8 2.32,0 4.15,-0.58 5.49,-1.74 1.34,-1.16 2.01,-2.65 2.01,-4.47 0,-1.43 -0.39,-2.59 -1.18,-3.48 -0.78,-0.89 -1.77,-1.57 -2.95,-2.04 -1.18,-0.46 -2.77,-0.96 -4.77,-1.5 -2.46,-0.64 -4.44,-1.29 -5.92,-1.93 -1.48,-0.64 -2.75,-1.65 -3.8,-3.03 -1.05,-1.38 -1.58,-3.22 -1.58,-5.54 0,-2.03 0.52,-3.84 1.55,-5.41 1.04,-1.57 2.49,-2.78 4.37,-3.64 1.87,-0.86 4.03,-1.29 6.45,-1.29 3.5,0 6.37,0.88 8.6,2.62 2.23,1.75 3.49,4.07 3.77,6.96l-5.36 0c-0.18,-1.43 -0.93,-2.69 -2.25,-3.78 -1.32,-1.09 -3.07,-1.63 -5.25,-1.63 -2.03,0 -3.69,0.53 -4.98,1.58 -1.29,1.05 -1.93,2.53 -1.93,4.42 0,1.36 0.38,2.46 1.15,3.32 0.77,0.86 1.71,1.51 2.84,1.96 1.12,0.45 2.7,0.95 4.74,1.53 2.46,0.68 4.45,1.35 5.94,2.01 1.5,0.66 2.79,1.68 3.86,3.05 1.07,1.37 1.61,3.24 1.61,5.6 0,1.82 -0.48,3.53 -1.45,5.14 -0.96,1.61 -2.39,2.91 -4.28,3.91 -1.89,1 -4.12,1.5 -6.69,1.5l0 0zm42.58 -37.71l0 3.96 -10.18 0 0 33.37 -4.88 0 0 -33.37 -10.23 0 0 -3.96 25.28 0zm25.65 37.33l-8.89 -15.27 -5.89 0 0 15.27 -4.87 0 0 -37.33 12.05 0c2.82,0 5.2,0.48 7.15,1.45 1.95,0.96 3.4,2.27 4.37,3.91 0.96,1.64 1.45,3.52 1.45,5.62 0,2.57 -0.74,4.84 -2.22,6.8 -1.48,1.96 -3.7,3.27 -6.67,3.91l9.37 15.64 -5.84 0 0 -0zm-14.78 -19.18l7.18 0c2.64,0 4.62,-0.65 5.95,-1.96 1.32,-1.3 1.98,-3.04 1.98,-5.22 0,-2.21 -0.65,-3.93 -1.96,-5.14 -1.3,-1.21 -3.29,-1.82 -5.97,-1.82l-7.18 0 0 14.14zm32.46 -18.16l0 23.62c0,3.32 0.81,5.78 2.44,7.39 1.62,1.61 3.88,2.41 6.77,2.41 2.86,0 5.1,-0.8 6.72,-2.41 1.62,-1.61 2.44,-4.07 2.44,-7.39l0 -23.62 4.87 0 0 23.57c0,3.11 -0.62,5.72 -1.87,7.85 -1.25,2.12 -2.94,3.7 -5.06,4.74 -2.12,1.04 -4.51,1.55 -7.15,1.55 -2.64,0 -5.03,-0.52 -7.15,-1.55 -2.13,-1.04 -3.8,-2.62 -5.04,-4.74 -1.23,-2.12 -1.85,-4.74 -1.85,-7.85l0 -23.57 4.88 0z"/>
  <path class="fil4" d="M214.62 81.52l-44.33 0c-3.89,0 -7.43,-1.59 -9.98,-4.14l-0.01 -0.01c-2.56,-2.56 -4.14,-6.09 -4.14,-9.98l0.01 -0.03 0.21 -21.13 58.6 0 0 6.69 -52 0 -0.14 14.46 0.01 0c0,2.06 0.83,3.92 2.17,5.27 1.35,1.34 3.21,2.17 5.27,2.17l44.33 0 0 6.7 0 0z"/>
  <path class="fil4" d="M342.62 46.23l59.61 0 0.21 21.13 0.01 0.03c0,3.89 -1.59,7.43 -4.14,9.98l-0.01 0.01c-2.56,2.56 -6.09,4.14 -9.98,4.14l-45.8 0 0 -22.2 53.18 0 -0.07 -6.4 -53.01 0 0 -6.69zm53.16 21.16l-0.01 -1.36 -46.55 0 0 8.8 39.11 0c2.06,0 3.92,-0.83 5.27,-2.17 1.34,-1.35 2.17,-3.21 2.17,-5.27l0.01 0z"/>
  <polygon class="fil3" points="280.17,78.19 303.36,64.58 280.17,50.98 280.17,42.61 310.49,60.4 340.81,42.61 340.81,50.98 317.63,64.58 340.81,78.19 340.81,86.56 310.49,68.77 280.17,86.56 "/>
  <path class="fil4" d="M218.98 46.23l59.61 0 0.21 21.13 0.01 0.03c0,3.89 -1.59,7.43 -4.14,9.98l-0.01 0.01c-2.56,2.56 -6.09,4.14 -9.98,4.14l-45.8 0 0 -22.2 53.18 0 -0.06 -6.4 -53.01 0 0 -6.69 0 0zm53.16 21.16l-0.01 -1.36 -46.55 0 0 8.8 39.11 0c2.06,0 3.92,-0.83 5.27,-2.17 1.34,-1.35 2.17,-3.21 2.17,-5.27l0.01 0z"/>
 </g>
</svg>
